<svg xmlns="http://www.w3.org/2000/svg" xmlns:svgjs="http://svgjs.com/svgjs" xmlns:xlink="http://www.w3.org/1999/xlink" width="288" height="288"><svg xmlns="http://www.w3.org/2000/svg" width="288" height="288" enable-background="new 0 0 150 150" viewBox="0 0 150 150"><polygon fill="#be2226" points="75 29.5 107.7 48.4 107.7 10.7" class="colorBE2226 svgShape"/><polygon fill="#e04625" points="140.3 29.5 107.7 10.7 107.7 10.7 107.7 48.4 107.7 48.4" class="colorE04625 svgShape"/><polygon fill="#e86824" points="107.7 86.1 140.3 67.2 140.3 67.2 107.7 48.4" class="colorE86824 svgShape"/><polygon fill="#efb51c" points="107.7 48.4 140.3 67.2 140.3 29.5 140.3 29.5 107.7 48.4" class="colorEFB51C svgShape"/><polygon fill="#e44c62" points="42.4 48.4 75 67.2 75 29.5" class="colorE44C62 svgShape"/><polygon fill="#e21468" points="107.7 48.4 107.7 48.4 75 29.5 75 67.2 107.7 48.4" class="colorE21468 svgShape"/><polygon fill="#29ae89" points="9.7 67.2 42.4 86.1 42.4 48.4" class="color29AE89 svgShape"/><polygon fill="#219cd7" points="42.4 123.8 75 104.9 75 104.9 42.4 86.1" class="color219CD7 svgShape"/><polygon fill="#0e4c87" points="9.7 67.2 9.7 104.9 42.4 86.1" class="color0E4C87 svgShape"/><polygon fill="#214082" points="9.7 104.9 42.4 123.8 42.4 86.1 42.4 86.1 9.7 104.9" class="color214082 svgShape"/><polygon fill="#abc837" points="107.7 86.1 140.3 104.9 140.3 67.2" class="colorABC837 svgShape"/><polygon fill="#084" points="75 104.9 107.7 123.8 107.7 86.1" class="color084 svgShape"/><polygon fill="#d6d824" points="140.3 104.9 107.7 86.1 107.7 86.1 107.7 123.8 107.7 123.8" class="colorD6D824 svgShape"/><polygon fill="#04a691" points="42.4 123.8 75 142.7 75 104.9" class="color04A691 svgShape" opacity=".65"/><polygon fill="#269e48" points="107.7 123.8 107.7 123.8 75 104.9 75 142.7 107.7 123.8" class="color269E48 svgShape"/><polygon fill="#ac1e50" points="9.7 29.5 9.7 67.3 42.4 48.4" class="colorAC1E50 svgShape"/><polygon fill="#9a1b40" points="75 29.5 42.4 10.7 42.4 48.4 75 29.5" class="color9A1B40 svgShape"/><polygon fill="#a03081" points="42.4 10.7 42.4 10.7 9.7 29.5 9.7 29.5 42.4 48.4 42.4 48.4" class="colorA03081 svgShape"/></svg></svg>